PathFileType	4	(X/Y/Z)	/Users/itak/Documents/Research/Walk-IL/dataset/trc/00298_00010.trc
DataRate	CameraRate	NumFrames	NumMarkers	Units	OrigDataRate	OrigDataStartFrame	OrigNumFrames
100.000000	100.000000	4	55	mm	100.000000	259	297
Frame#	Time	RPSI			LPSI			L3			STRN			T10			C7			CLAV			RBAK			LBAK			LSHO			LUPA			LAEL			LAOL			LWPS			LFRA			LIFD			LHPS			LHTS			RSHO			RUPA			RAEL			RAOL			RWTS			RWPS			RFRA			RIFD			RHTS			RHPS			RBHD			LFHD			RFHD			LBHD			RASI			LASI			LKNE			LTHI			LANK			LTIP			LTOE			LMT1			LMT5			LHEE			RKNE			RTHI			RANK			RTIP			RTOE			RMT1			RMT5			LWTS			RHEE			LHIP			RHIP			*53			*54			
		X1	Y1	Z1	X2	Y2	Z2	X3	Y3	Z3	X4	Y4	Z4	X5	Y5	Z5	X6	Y6	Z6	X7	Y7	Z7	X8	Y8	Z8	X9	Y9	Z9	X10	Y10	Z10	X11	Y11	Z11	X12	Y12	Z12	X13	Y13	Z13	X14	Y14	Z14	X15	Y15	Z15	X16	Y16	Z16	X17	Y17	Z17	X18	Y18	Z18	X19	Y19	Z19	X20	Y20	Z20	X21	Y21	Z21	X22	Y22	Z22	X23	Y23	Z23	X24	Y24	Z24	X25	Y25	Z25	X26	Y26	Z26	X27	Y27	Z27	X28	Y28	Z28	X29	Y29	Z29	X30	Y30	Z30	X31	Y31	Z31	X32	Y32	Z32	X33	Y33	Z33	X34	Y34	Z34	X35	Y35	Z35	X36	Y36	Z36	X37	Y37	Z37	X38	Y38	Z38	X39	Y39	Z39	X40	Y40	Z40	X41	Y41	Z41	X42	Y42	Z42	X43	Y43	Z43	X44	Y44	Z44	X45	Y45	Z45	X46	Y46	Z46	X47	Y47	Z47	X48	Y48	Z48	X49	Y49	Z49	X50	Y50	Z50	X51	Y51	Z51	X52	Y52	Z52	X53	Y53	Z53	X54	Y54	Z54	X55	Y55	Z55	

260	2.59	615.4425659179688	999.5245971679688	-328.3507080078125	441.6823120117188	982.2896118164062	-318.76953125	524.601806640625	1063.21142578125	-341.4676208496094	491.1533508300781	1245.10693359375	-591.939697265625	526.4929809570312	1180.23486328125	-327.0049438476562	504.0430603027344	1425.079956054688	-368.3531799316406	493.4729614257812	1344.538818359375	-527.1929931640625	588.2254028320312	1288.414184570312	-327.8890380859375	402.5171813964844	1388.253784179688	-343.1764831542969	338.4422302246094	1394.92529296875	-428.6393432617188	272.7636108398438	1279.7763671875	-383.9703063964844	265.4497680664062	1077.069091796875	-366.0015869140625	340.2432861328125	1070.128295898438	-320.5284729003906	248.2524871826172	839.8472290039062	-390.3671264648438	256.2941284179688	971.8438720703125	-369.4788818359375	306.2021789550781	666.3110961914062	-426.7206420898438	255.08740234375	751.5853881835938	-387.4708557128906	280.4938049316406	749.5033569335938	-448.6549377441406	652.7175903320312	1405.066040039062	-453.6042785644531	720.9693603515625	1349.007446289062	-458.6634216308594	803.5594482421875	1095.657470703125	-501.2708740234375	718.4967651367188	1070.496215820312	-467.5043334960938	779.1505737304688	920.9453735351562	-675.936279296875	851.2215576171875	906.0968017578125	-632.5761108398438	823.8642578125	1040.708862304688	-544.2538452148438	809.705322265625	757.8369750976562	-761.2212524414062	815.1920166015625	831.8385009765625	-748.9481811523438	862.8125	815.2352294921875	-699.3705444335938	578.3994140625	1576.038452148438	-387.4072570800781	446.8133850097656	1638.658203125	-542.14990234375	539.79833984375	1635.257568359375	-549.6004638671875	432.2579040527344	1571.884887695312	-379.30322265625	635.5567626953125	959.173095703125	-552.8482666015625	384.7235107421875	952.8062744140625	-525.6085815429688	338.5520629882812	500.9797973632812	-591.0335693359375	330.1045227050781	634.6925048828125	-539.252685546875	343.8990173339844	177.0900573730469	-281.2496643066406	330.0788879394531	327.4453735351562	-444.0849304199219	430.2851257324219	39.73197174072266	-415.012939453125	459.37939453125	82.57788848876953	-351.5565185546875	348.6927490234375	85.24288177490234	-362.7915344238281	396.784423828125	210.7567749023438	-240.5005798339844	670.1322021484375	481.8174743652344	-506.1370544433594	702.3289184570312	746.25244140625	-511.1732482910156	633.63525390625	36.97713851928711	-479.4842834472656	652.4680786132812	360.2328796386719	-524.2779541015625	559.837890625	37.98789978027344	-670.5939331054688	527.7122802734375	38.48072052001953	-608.47607421875	641.97314453125	26.80733680725098	-583.1829833984375	301.5218811035156	849.6276245117188	-439.974365234375	589.8969116210938	36.63030242919922	-423.4346008300781	342.6758422851562	933.1237182617188	-386.4304809570312	713.6527709960938	953.4434204101562	-437.9593505859375	nan	nan	nan	nan	nan	nan	
261	2.6	615.9829711914062	999.4013061523438	-330.3175964355469	442.1741027832031	982.3890991210938	-320.9519348144531	525.97705078125	1063.724243164062	-343.6449890136719	491.7618103027344	1245.255859375	-594.6974487304688	528.6552734375	1180.814208984375	-330.0531311035156	506.2259826660156	1425.526977539062	-371.594482421875	494.5305786132812	1344.792114257812	-530.123046875	590.7250366210938	1289.004272460938	-331.643798828125	404.927734375	1388.86572265625	-345.5579528808594	340.1722106933594	1395.448364257812	-430.5936584472656	274.7623596191406	1280.3056640625	-385.5902404785156	267.712158203125	1077.421997070312	-368.2206726074219	342.4759826660156	1070.531494140625	-322.6687927246094	250.8178405761719	840.52001953125	-395.3922729492188	258.8002014160156	972.3032836914062	-372.7332458496094	309.3607482910156	667.6671142578125	-434.1362609863281	257.9443359375	752.2181396484375	-393.6892395019531	283.278564453125	751.078369140625	-454.8864440917969	654.2283325195312	1405.391357421875	-458.20361328125	722.2985229492188	1349.33349609375	-464.0630798339844	804.3709106445312	1096.261352539062	-508.9799499511719	720.002197265625	1073.095947265625	-472.4419860839844	778.015625	921.9207153320312	-683.9072875976562	850.616943359375	907.1015014648438	-641.48046875	824.2144775390625	1041.470825195312	-552.4069213867188	807.5736083984375	758.7651977539062	-769.5073852539062	813.1546630859375	832.8091430664062	-757.3372192382812	861.4949951171875	816.3518676757812	-708.4432373046875	580.468994140625	1576.232421875	-391.108642578125	448.2079162597656	1639.01904296875	-545.2030639648438	541.1953125	1635.508666992188	-553.1495361328125	434.3688354492188	1572.371704101562	-382.2678527832031	636.3667602539062	959.2698364257812	-554.7381591796875	385.7956237792969	953.31640625	-527.916015625	339.2423095703125	502.489013671875	-596.3807983398438	330.6656188964844	636.0162963867188	-543.5706176757812	347.5499877929688	170.5179290771484	-293.502197265625	332.0465393066406	325.6850891113281	-452.5688781738281	432.6405334472656	41.09016799926758	-435.4461364746094	462.4863586425781	80.02165985107422	-370.3824462890625	351.6386413574219	83.22789764404297	-379.5845336914062	400.6934509277344	202.5714569091797	-251.6764373779297	670.3974609375	481.7332458496094	-507.4963989257812	702.8095703125	746.1692504882812	-512.9298706054688	633.621826171875	37.25798797607422	-479.5352172851562	652.64697265625	360.025390625	-525.24365234375	559.805419921875	37.9354248046875	-670.6456298828125	527.6629638671875	38.43675994873047	-608.5081787109375	641.9632568359375	26.90114402770996	-583.2022705078125	304.1078796386719	851.2305297851562	-444.6136169433594	589.7640380859375	36.76952362060547	-423.4273376464844	343.5924072265625	933.377685546875	-388.8772888183594	714.2156982421875	953.1954956054688	-439.8164978027344	nan	nan	nan	nan	nan	nan	
262	2.61	616.4472045898438	999.2027587890625	-332.1621704101562	442.5812377929688	982.4113159179688	-323.1059265136719	527.2268676757812	1064.27587890625	-345.6697387695312	492.4406433105469	1245.326293945312	-597.3862915039062	530.6749267578125	1181.357055664062	-332.9971313476562	508.2815551757812	1425.92138671875	-374.7517700195312	495.5877990722656	1344.96044921875	-532.9862060546875	593.056396484375	1289.55322265625	-335.2398986816406	407.1931457519531	1389.418701171875	-347.9199829101562	341.8523254394531	1395.919555664062	-432.5738525390625	276.5995788574219	1280.74755859375	-387.3944396972656	269.6803283691406	1077.6669921875	-370.7951049804688	344.2347717285156	1070.833374023438	-324.9023742675781	253.1047821044922	841.1598510742188	-400.78271484375	261.0222473144531	972.7013549804688	-376.3604431152344	312.3735961914062	668.9468383789062	-441.4249572753906	260.4489440917969	752.8159790039062	-400.1685180664062	286.146484375	752.5521240234375	-461.1772766113281	655.6636962890625	1405.639770507812	-462.6614685058594	723.5309448242188	1349.5947265625	-469.2371826171875	805.0753784179688	1096.768798828125	-516.3466796875	721.4928588867188	1076.067016601562	-476.6323852539062	776.66162109375	922.7828369140625	-691.4408569335938	849.8219604492188	908.0164184570312	-650.0151977539062	824.4312133789062	1042.134399414062	-560.202880859375	805.0577392578125	759.5060424804688	-777.3289184570312	810.8114013671875	833.6484985351562	-765.2982788085938	859.9000854492188	817.3348999023438	-717.1361694335938	582.431396484375	1576.364868164062	-394.7001647949219	449.5226440429688	1639.337768554688	-548.1613159179688	542.5029907226562	1635.719116210938	-556.5838012695312	436.381591796875	1572.790283203125	-385.1398010253906	637.05322265625	959.1972045898438	-556.2908325195312	386.849609375	953.7753295898438	-530.2344360351562	339.8409729003906	503.7037963867188	-601.0519409179688	331.1697082519531	637.047607421875	-547.3125610351562	350.6923522949219	163.46240234375	-305.8928527832031	333.7222595214844	323.504150390625	-460.7288818359375	434.5723571777344	42.47432708740234	-455.4800415039062	465.1436157226562	77.26632690429688	-389.0366516113281	354.1402282714844	80.93427276611328	-396.2796020507812	404.10986328125	193.7598876953125	-262.9642028808594	670.6157836914062	481.6813354492188	-509.0290222167969	703.2843627929688	746.0641479492188	-514.6609497070312	633.5725708007812	37.52424621582031	-479.5838317871094	652.7608642578125	359.8233947753906	-526.4048461914062	559.763671875	37.87534332275391	-670.70361328125	527.5968627929688	38.38153076171875	-608.542724609375	641.93603515625	27.02306938171387	-583.2252197265625	306.6836853027344	852.7518920898438	-449.2213745117188	589.5731811523438	36.91518402099609	-423.4242858886719	344.4854431152344	933.579833984375	-391.3428344726562	714.7630615234375	952.942626953125	-441.5164794921875	nan	nan	nan	nan	nan	nan	
263	2.62	616.8524780273438	998.9222412109375	-333.8993225097656	442.9154663085938	982.3361206054688	-325.2370300292969	528.3677978515625	1064.851684570312	-347.5536193847656	493.1896057128906	1245.311645507812	-600.004638671875	532.55126953125	1181.867065429688	-335.8197631835938	510.2027282714844	1426.266967773438	-377.8269653320312	496.6392211914062	1345.037841796875	-535.7843627929688	595.2031860351562	1290.067504882812	-338.6776428222656	409.299560546875	1389.913452148438	-350.267822265625	343.4818115234375	1396.3388671875	-434.5771484375	278.2835693359375	1281.101196289062	-389.3692016601562	271.3677978515625	1077.825073242188	-373.6977233886719	345.5601196289062	1071.029418945312	-327.2293395996094	255.0782928466797	841.7841186523438	-406.4801635742188	262.940673828125	973.0531005859375	-380.3262939453125	315.1606750488281	670.1171264648438	-448.4860229492188	262.5310974121094	753.392333984375	-406.8372497558594	289.0248413085938	753.9059448242188	-467.4503479003906	657.0187377929688	1405.813110351562	-466.9746704101562	724.6700439453125	1349.781860351562	-474.1833190917969	805.6781005859375	1097.165649414062	-523.3549194335938	722.9619750976562	1079.34814453125	-480.1262817382812	775.0968017578125	923.53857421875	-698.522216796875	848.8436889648438	908.841552734375	-658.171142578125	824.51806640625	1042.68994140625	-567.6242065429688	802.2005615234375	760.1036987304688	-784.7050170898438	808.1804809570312	834.3822631835938	-772.8336791992188	858.0414428710938	818.1953125	-725.450927734375	584.2826538085938	1576.430908203125	-398.1817321777344	450.7633361816406	1639.618774414062	-551.0277709960938	543.724609375	1635.887817382812	-559.8998413085938	438.2930908203125	1573.130981445312	-387.9276123046875	637.566650390625	958.9039916992188	-557.4147338867188	387.8577880859375	954.1869506835938	-532.5504150390625	340.3786926269531	504.6069946289062	-605.0829467773438	331.6231689453125	637.77294921875	-550.5137329101562	353.3215942382812	156.0523529052734	-318.3703308105469	335.1234130859375	320.9409484863281	-468.5872192382812	435.9755249023438	43.86001205444336	-475.0222778320312	467.2754211425781	74.38614654541016	-407.4037780761719	356.1356201171875	78.43171691894531	-412.785400390625	407.0491638183594	184.4398345947266	-274.3501281738281	670.7852172851562	481.6503601074219	-510.7508239746094	703.7467041015625	745.9271850585938	-516.3857421875	633.49169921875	37.78553009033203	-479.6370544433594	652.8070068359375	359.6134338378906	-527.76708984375	559.7149047851562	37.80727005004883	-670.7715454101562	527.5105590820312	38.3134651184082	-608.5794067382812	641.8869018554688	27.17499160766602	-583.2514038085938	309.2164306640625	854.133544921875	-453.7704772949219	589.335205078125	37.0584716796875	-423.4190368652344	345.3302001953125	933.7337036132812	-393.8132019042969	715.2952880859375	952.672119140625	-443.1019287109375	nan	nan	nan	nan	nan	nan	
